<?xml version="1.0" standalone="no"?>
<!DOCTYPE svg PUBLIC "-//W3C//DTD SVG 20010904//EN"
 "http://www.w3.org/TR/2001/REC-SVG-20010904/DTD/svg10.dtd">
<svg version="1.0" xmlns="http://www.w3.org/2000/svg"
 width="1024.000000pt" height="1024.000000pt" viewBox="0 0 1024.000000 1024.000000"
 preserveAspectRatio="xMidYMid meet">
<metadata>
Created by potrace 1.16, written by Peter Selinger 2001-2019
</metadata>
<g transform="translate(0.000000,1024.000000) scale(0.100000,-0.100000)"
fill="#000000" stroke="none">
<path d="M2436 6575 c-14 -22 -16 -126 -16 -1098 0 -1047 0 -1074 19 -1091 17
-15 44 -18 178 -20 87 -2 164 -1 171 2 6 2 12 19 12 36 0 18 5 37 11 43 7 7 9
19 6 27 -5 13 -28 16 -142 16 l-135 0 0 995 0 995 683 0 683 0 0 -196 c0 -182
1 -197 19 -210 14 -11 62 -14 207 -14 l188 0 0 -336 0 -337 46 7 c26 3 53 6
60 6 12 0 14 65 14 373 l0 372 -226 228 -227 227 -767 0 -768 0 -16 -25z
m1693 -290 l103 -105 -100 0 -101 0 -3 105 c-2 58 -3 105 -3 105 1 0 47 -47
104 -105z"/>
<path d="M2770 6310 c-12 -8 -15 -46 -18 -227 -1 -130 2 -224 7 -233 9 -13 47
-15 240 -15 126 0 233 4 238 8 4 5 8 110 8 233 0 189 -2 226 -15 234 -20 13
-440 13 -460 0z m360 -235 l0 -125 -130 0 -130 0 0 125 0 125 130 0 130 0 0
-125z"/>
<path d="M3390 6018 c-24 -26 -25 -46 -4 -76 l15 -22 347 0 c191 0 352 4 359
8 21 14 26 60 9 87 l-16 25 -345 0 c-341 0 -344 0 -365 -22z"/>
<path d="M2756 5778 c-20 -29 -20 -47 2 -76 l17 -22 665 2 664 3 15 26 c12 22
12 29 0 55 l-14 29 -667 3 -667 2 -15 -22z"/>
<path d="M2756 5538 c-9 -12 -16 -29 -16 -38 0 -9 7 -26 16 -38 l15 -22 663 0
c501 0 665 3 674 12 7 7 12 28 12 48 0 20 -5 41 -12 48 -9 9 -173 12 -674 12
l-663 0 -15 -22z"/>
<path d="M2756 5298 c-20 -28 -20 -48 0 -76 l15 -22 469 0 c440 0 472 1 512
19 24 11 62 27 86 37 33 14 42 22 40 38 -3 21 -5 21 -555 24 l-552 2 -15 -22z"/>
<path d="M4510 5305 c-63 -7 -153 -18 -200 -24 -93 -11 -243 -44 -293 -65 -18
-8 -57 -24 -87 -36 -30 -12 -68 -28 -85 -35 -16 -8 -79 -34 -140 -60 -60 -26
-128 -55 -150 -65 -204 -96 -210 -98 -419 -105 -87 -3 -162 -7 -167 -11 -17
-10 -10 -73 10 -90 18 -16 18 -19 4 -60 -23 -68 -18 -73 89 -76 l93 -3 -2 -34
c-2 -57 -30 -75 -120 -76 l-78 -2 -11 -49 c-6 -27 -21 -65 -32 -84 -25 -41
-30 -145 -10 -214 18 -60 62 -128 97 -149 38 -22 185 -67 221 -67 15 0 48 -7
73 -16 63 -21 77 -15 77 38 0 134 87 278 211 350 58 34 170 68 225 68 62 0
196 -45 246 -84 53 -39 98 -84 98 -95 0 -5 7 -14 15 -21 8 -7 24 -33 36 -59
18 -41 26 -74 45 -188 l5 -33 994 0 995 0 0 33 c0 49 28 156 53 201 75 139
209 227 368 243 65 6 175 -22 244 -63 41 -24 125 -99 125 -111 0 -4 8 -16 18
-27 29 -32 59 -115 67 -181 12 -101 0 -95 203 -95 294 1 444 22 486 69 23 25
24 81 3 93 -15 8 -17 29 -17 149 0 128 -2 144 -24 188 -50 98 -138 172 -271
229 -108 46 -313 99 -435 112 -41 4 -138 15 -215 24 -77 9 -203 23 -280 32
-158 17 -170 22 -385 149 -69 41 -131 74 -137 74 -7 1 -13 5 -13 10 0 5 -17
16 -37 26 -21 9 -63 30 -93 46 -133 72 -236 111 -350 131 -102 19 -160 21
-525 24 -293 2 -443 -1 -525 -11z m359 -162 c6 -21 11 -50 11 -64 0 -15 9 -71
20 -124 11 -53 20 -101 20 -106 0 -11 -290 -12 -657 -2 l-263 6 22 36 c43 72
149 164 237 206 69 33 237 63 406 73 83 5 160 10 172 10 17 2 24 -6 32 -35z
m481 22 c192 -16 273 -37 397 -102 107 -56 183 -106 341 -223 l47 -35 -120 -3
c-110 -3 -535 10 -796 24 l-106 6 -12 46 c-7 26 -16 67 -22 92 -5 25 -15 63
-23 85 -7 22 -18 59 -23 83 l-10 42 81 0 c45 0 155 -7 246 -15z m2180 -627
c36 -11 80 -32 98 -46 38 -29 81 -102 60 -102 -81 2 -202 22 -234 38 -42 22
-104 95 -104 122 0 14 9 16 58 13 31 -2 86 -13 122 -25z"/>
<path d="M3717 4364 c-109 -26 -205 -107 -257 -218 -20 -41 -23 -65 -23 -151
0 -93 2 -108 31 -168 17 -37 36 -67 41 -67 6 0 11 -6 11 -13 0 -20 92 -85 159
-112 136 -56 310 -16 419 96 18 18 47 63 65 99 29 59 32 73 32 160 0 78 -4
105 -24 150 -50 116 -145 197 -264 224 -81 19 -113 19 -190 0z m179 -188 c127
-59 158 -216 61 -316 -48 -51 -71 -60 -151 -60 -66 0 -84 8 -142 67 -24 24
-54 98 -54 133 0 33 33 104 61 133 34 33 103 65 144 66 17 1 53 -10 81 -23z"/>
<path d="M6595 4365 c-108 -27 -190 -93 -246 -198 -32 -59 -33 -66 -33 -172 0
-104 1 -113 31 -170 70 -136 196 -215 344 -215 155 0 284 83 355 228 25 50 28
69 29 152 0 78 -4 105 -24 150 -50 116 -145 197 -264 224 -79 19 -123 19 -192
1z m175 -186 c86 -38 127 -110 117 -207 -11 -108 -86 -172 -199 -172 -66 0
-91 11 -144 66 -26 26 -54 96 -54 133 0 65 54 142 125 179 51 27 98 27 155 1z"/>
</g>
</svg>
